<svg width="150" height="150" viewBox="0 0 150 150" fill="none" xmlns="http://www.w3.org/2000/svg">
<g clip-path="url(#clip0)">
<rect width="150" height="150" rx="16" fill="white"/>
<rect width="150" height="150" fill="#A60808"/>
<path d="M42.848 68.128V77.344H43.136C48.992 69.568 56.768 65.68 66.464 65.68C78.176 65.68 86.576 70.384 91.664 79.792C94.16 75.28 97.664 71.824 102.176 69.424C106.688 66.928 111.536 65.68 116.72 65.68C133.52 65.68 141.92 75.424 141.92 94.912V142H115.712V106.72C115.712 104.32 115.664 102.592 115.568 101.536C115.568 100.48 115.376 98.8 114.992 96.496C114.704 94.192 114.224 92.464 113.552 91.312C112.88 90.16 111.776 89.104 110.24 88.144C108.8 87.088 107.024 86.56 104.912 86.56C102.608 86.56 100.64 87.04 99.008 88C97.376 88.864 96.128 89.92 95.264 91.168C94.4 92.32 93.728 93.904 93.248 95.92C92.864 97.936 92.624 99.712 92.528 101.248C92.432 102.688 92.384 104.512 92.384 106.72V142H66.176V106.72C66.176 104.8 66.128 103.312 66.032 102.256C66.032 101.2 65.936 99.712 65.744 97.792C65.552 95.872 65.216 94.336 64.736 93.184C64.256 92.032 63.584 90.832 62.72 89.584C61.952 88.336 60.848 87.424 59.408 86.848C57.968 86.272 56.336 85.984 54.512 85.984C52.688 85.984 51.056 86.272 49.616 86.848C48.176 87.424 47.024 88.336 46.16 89.584C45.392 90.832 44.768 92.032 44.288 93.184C43.808 94.336 43.472 95.872 43.28 97.792C43.088 99.712 42.944 101.2 42.848 102.256C42.848 103.312 42.848 104.8 42.848 106.72V142H16.64V68.128H42.848Z" fill="white"/>
<path d="M42.848 68.128H44.848V66.128H42.848V68.128ZM42.848 77.344H40.848V79.344H42.848V77.344ZM43.136 77.344V79.344H44.1335L44.7336 78.5471L43.136 77.344ZM91.664 79.792L89.9048 80.7434L91.6442 83.9596L93.4141 80.7601L91.664 79.792ZM102.176 69.424L103.115 71.1897L103.13 71.182L103.144 71.1741L102.176 69.424ZM141.92 142V144H143.92V142H141.92ZM115.712 142H113.712V144H115.712V142ZM115.568 101.536H113.568V101.627L113.576 101.717L115.568 101.536ZM114.992 96.496L113.007 96.7441L113.013 96.7846L113.019 96.8248L114.992 96.496ZM113.552 91.312L115.28 90.3043V90.3042L113.552 91.312ZM110.24 88.144L109.057 89.7568L109.117 89.8007L109.18 89.84L110.24 88.144ZM99.008 88L99.9438 89.7676L99.9834 89.7466L100.022 89.7239L99.008 88ZM95.264 91.168L96.864 92.368L96.8868 92.3376L96.9084 92.3064L95.264 91.168ZM93.248 95.92L91.3024 95.4568L91.2918 95.501L91.2833 95.5458L93.248 95.92ZM92.528 101.248L94.5236 101.381L94.5241 101.373L92.528 101.248ZM92.384 142V144H94.384V142H92.384ZM66.176 142H64.176V144H66.176V142ZM66.032 102.256H64.032V102.347L64.0402 102.437L66.032 102.256ZM62.72 89.584L61.0167 90.6322L61.0449 90.6781L61.0756 90.7224L62.72 89.584ZM59.408 86.848L60.1508 84.991L60.1508 84.991L59.408 86.848ZM49.616 86.848L48.8732 84.991V84.991L49.616 86.848ZM46.16 89.584L44.5156 88.4456L44.4849 88.4899L44.4567 88.5358L46.16 89.584ZM43.28 97.792L41.2899 97.593L43.28 97.792ZM42.848 102.256L40.8562 102.075L40.848 102.165V102.256H42.848ZM42.848 142V144H44.848V142H42.848ZM16.64 142H14.64V144H16.64V142ZM16.64 68.128V66.128H14.64V68.128H16.64ZM40.848 68.128V77.344H44.848V68.128H40.848ZM42.848 79.344H43.136V75.344H42.848V79.344ZM44.7336 78.5471C50.2135 71.2706 57.3991 67.68 66.464 67.68V63.68C56.1369 63.68 47.7705 67.8654 41.5384 76.1408L44.7336 78.5471ZM66.464 67.68C72.0515 67.68 76.7276 68.8008 80.5708 70.953C84.4043 73.0998 87.5204 76.3345 89.9048 80.7434L93.4232 78.8406C90.7196 73.8415 87.0917 70.0202 82.5252 67.463C77.9684 64.9112 72.5885 63.68 66.464 63.68V67.68ZM93.4141 80.7601C95.7245 76.5836 98.9482 73.4062 103.115 71.1897L101.237 67.6583C96.3798 70.2418 92.5955 73.9764 89.9139 78.8239L93.4141 80.7601ZM103.144 71.1741C107.358 68.8429 111.873 67.68 116.72 67.68V63.68C111.199 63.68 106.018 65.0131 101.208 67.6739L103.144 71.1741ZM116.72 67.68C124.728 67.68 130.394 69.9885 134.105 74.2939C137.866 78.6561 139.92 85.4096 139.92 94.912H143.92C143.92 84.9264 141.774 77.0639 137.135 71.6821C132.446 66.2435 125.512 63.68 116.72 63.68V67.68ZM139.92 94.912V142H143.92V94.912H139.92ZM141.92 140H115.712V144H141.92V140ZM117.712 142V106.72H113.712V142H117.712ZM117.712 106.72C117.712 104.315 117.665 102.509 117.56 101.355L113.576 101.717C113.663 102.675 113.712 104.325 113.712 106.72H117.712ZM117.568 101.536C117.568 100.302 117.351 98.4819 116.965 96.1672L113.019 96.8248C113.401 99.1181 113.568 100.658 113.568 101.536H117.568ZM116.977 96.2479C116.676 93.8453 116.153 91.8019 115.28 90.3043L111.824 92.3197C112.295 93.1261 112.732 94.5387 113.007 96.7441L116.977 96.2479ZM115.28 90.3042C114.396 88.7899 113.017 87.5212 111.3 86.448L109.18 89.84C110.535 90.6868 111.364 91.53 111.824 92.3197L115.28 90.3042ZM111.423 86.5312C109.58 85.1801 107.369 84.56 104.912 84.56V88.56C106.679 88.56 108.02 88.9959 109.057 89.7568L111.423 86.5312ZM104.912 84.56C102.329 84.56 99.9937 85.0998 97.994 86.2761L100.022 89.7239C101.286 88.9801 102.887 88.56 104.912 88.56V84.56ZM98.0722 86.2324C96.2176 87.2143 94.7014 88.467 93.6196 90.0296L96.9084 92.3064C97.5546 91.373 98.5344 90.5137 99.9438 89.7676L98.0722 86.2324ZM93.664 89.968C92.5799 91.4134 91.8202 93.282 91.3024 95.4568L95.1936 96.3832C95.6358 94.5259 96.2201 93.2266 96.864 92.368L93.664 89.968ZM91.2833 95.5458C90.8885 97.6189 90.6345 99.4812 90.5319 101.123L94.5241 101.373C94.6135 99.9428 94.8396 98.2531 95.2127 96.2942L91.2833 95.5458ZM90.5324 101.115C90.4324 102.616 90.384 104.488 90.384 106.72H94.384C94.384 104.536 94.4316 102.76 94.5236 101.381L90.5324 101.115ZM90.384 106.72V142H94.384V106.72H90.384ZM92.384 140H66.176V144H92.384V140ZM68.176 142V106.72H64.176V142H68.176ZM68.176 106.72C68.176 104.78 68.128 103.221 68.0238 102.075L64.0402 102.437C64.128 103.403 64.176 104.82 64.176 106.72H68.176ZM68.032 102.256C68.032 101.1 67.9282 99.5347 67.7341 97.593L63.7539 97.991C63.9438 99.8893 64.032 101.3 64.032 102.256H68.032ZM67.7341 97.593C67.5319 95.5715 67.1675 93.8195 66.5822 92.4148L62.8899 93.9532C63.2645 94.8525 63.5721 96.1725 63.7539 97.991L67.7341 97.593ZM66.5822 92.4148C66.0379 91.1087 65.2919 89.7853 64.3644 88.4456L61.0756 90.7224C61.8761 91.8787 62.4741 92.9553 62.8899 93.9532L66.5822 92.4148ZM64.4233 88.5358C63.4167 86.9 61.9647 85.7166 60.1508 84.991L58.6652 88.7049C59.7313 89.1314 60.4873 89.772 61.0167 90.6322L64.4233 88.5358ZM60.1508 84.991C58.4368 84.3055 56.5464 83.984 54.512 83.984V87.984C56.1256 87.984 57.4992 88.2385 58.6652 88.705L60.1508 84.991ZM54.512 83.984C52.4776 83.984 50.5872 84.3055 48.8732 84.991L50.3588 88.705C51.5248 88.2385 52.8984 87.984 54.512 87.984V83.984ZM48.8732 84.991C47.0771 85.7095 45.6082 86.8674 44.5156 88.4456L47.8044 90.7224C48.4398 89.8046 49.2749 89.1385 50.3588 88.7049L48.8732 84.991ZM44.4567 88.5358C43.643 89.858 42.9683 91.1513 42.4418 92.4148L46.1342 93.9532C46.5677 92.9127 47.141 91.806 47.8633 90.6322L44.4567 88.5358ZM42.4418 92.4148C41.8565 93.8195 41.4921 95.5715 41.2899 97.593L45.2701 97.991C45.4519 96.1725 45.7595 94.8525 46.1342 93.9532L42.4418 92.4148ZM41.2899 97.593C41.0977 99.515 40.953 101.01 40.8562 102.075L44.8398 102.437C44.935 101.39 45.0783 99.909 45.2701 97.991L41.2899 97.593ZM40.848 102.256C40.848 102.258 40.848 102.26 40.848 102.262C40.848 102.264 40.848 102.266 40.848 102.268C40.848 102.27 40.848 102.273 40.848 102.275C40.848 102.277 40.848 102.279 40.848 102.281C40.848 102.283 40.848 102.285 40.848 102.287C40.848 102.289 40.848 102.291 40.848 102.293C40.848 102.295 40.848 102.297 40.848 102.3C40.848 102.302 40.848 102.304 40.848 102.306C40.848 102.308 40.848 102.31 40.848 102.312C40.848 102.314 40.848 102.316 40.848 102.318C40.848 102.32 40.848 102.323 40.848 102.325C40.848 102.327 40.848 102.329 40.848 102.331C40.848 102.333 40.848 102.335 40.848 102.337C40.848 102.339 40.848 102.341 40.848 102.344C40.848 102.346 40.848 102.348 40.848 102.35C40.848 102.352 40.848 102.354 40.848 102.356C40.848 102.358 40.848 102.36 40.848 102.363C40.848 102.365 40.848 102.367 40.848 102.369C40.848 102.371 40.848 102.373 40.848 102.375C40.848 102.377 40.848 102.38 40.848 102.382C40.848 102.384 40.848 102.386 40.848 102.388C40.848 102.39 40.848 102.392 40.848 102.395C40.848 102.397 40.848 102.399 40.848 102.401C40.848 102.403 40.848 102.405 40.848 102.407C40.848 102.409 40.848 102.412 40.848 102.414C40.848 102.416 40.848 102.418 40.848 102.42C40.848 102.422 40.848 102.425 40.848 102.427C40.848 102.429 40.848 102.431 40.848 102.433C40.848 102.435 40.848 102.437 40.848 102.44C40.848 102.442 40.848 102.444 40.848 102.446C40.848 102.448 40.848 102.45 40.848 102.453C40.848 102.455 40.848 102.457 40.848 102.459C40.848 102.461 40.848 102.463 40.848 102.466C40.848 102.468 40.848 102.47 40.848 102.472C40.848 102.474 40.848 102.476 40.848 102.479C40.848 102.481 40.848 102.483 40.848 102.485C40.848 102.487 40.848 102.49 40.848 102.492C40.848 102.494 40.848 102.496 40.848 102.498C40.848 102.5 40.848 102.503 40.848 102.505C40.848 102.507 40.848 102.509 40.848 102.511C40.848 102.514 40.848 102.516 40.848 102.518C40.848 102.52 40.848 102.522 40.848 102.525C40.848 102.527 40.848 102.529 40.848 102.531C40.848 102.533 40.848 102.536 40.848 102.538C40.848 102.54 40.848 102.542 40.848 102.544C40.848 102.547 40.848 102.549 40.848 102.551C40.848 102.553 40.848 102.556 40.848 102.558C40.848 102.56 40.848 102.562 40.848 102.564C40.848 102.567 40.848 102.569 40.848 102.571C40.848 102.573 40.848 102.576 40.848 102.578C40.848 102.58 40.848 102.582 40.848 102.584C40.848 102.587 40.848 102.589 40.848 102.591C40.848 102.593 40.848 102.596 40.848 102.598C40.848 102.6 40.848 102.602 40.848 102.605C40.848 102.607 40.848 102.609 40.848 102.611C40.848 102.614 40.848 102.616 40.848 102.618C40.848 102.62 40.848 102.622 40.848 102.625C40.848 102.627 40.848 102.629 40.848 102.632C40.848 102.634 40.848 102.636 40.848 102.638C40.848 102.641 40.848 102.643 40.848 102.645C40.848 102.647 40.848 102.65 40.848 102.652C40.848 102.654 40.848 102.656 40.848 102.659C40.848 102.661 40.848 102.663 40.848 102.665C40.848 102.668 40.848 102.67 40.848 102.672C40.848 102.675 40.848 102.677 40.848 102.679C40.848 102.681 40.848 102.684 40.848 102.686C40.848 102.688 40.848 102.69 40.848 102.693C40.848 102.695 40.848 102.697 40.848 102.7C40.848 102.702 40.848 102.704 40.848 102.706C40.848 102.709 40.848 102.711 40.848 102.713C40.848 102.716 40.848 102.718 40.848 102.72C40.848 102.723 40.848 102.725 40.848 102.727C40.848 102.729 40.848 102.732 40.848 102.734C40.848 102.736 40.848 102.739 40.848 102.741C40.848 102.743 40.848 102.746 40.848 102.748C40.848 102.75 40.848 102.752 40.848 102.755C40.848 102.757 40.848 102.759 40.848 102.762C40.848 102.764 40.848 102.766 40.848 102.769C40.848 102.771 40.848 102.773 40.848 102.776C40.848 102.778 40.848 102.78 40.848 102.783C40.848 102.785 40.848 102.787 40.848 102.79C40.848 102.792 40.848 102.794 40.848 102.797C40.848 102.799 40.848 102.801 40.848 102.804C40.848 102.806 40.848 102.808 40.848 102.811C40.848 102.813 40.848 102.815 40.848 102.818C40.848 102.82 40.848 102.822 40.848 102.825C40.848 102.827 40.848 102.829 40.848 102.832C40.848 102.834 40.848 102.836 40.848 102.839C40.848 102.841 40.848 102.843 40.848 102.846C40.848 102.848 40.848 102.851 40.848 102.853C40.848 102.855 40.848 102.858 40.848 102.86C40.848 102.862 40.848 102.865 40.848 102.867C40.848 102.869 40.848 102.872 40.848 102.874C40.848 102.877 40.848 102.879 40.848 102.881C40.848 102.884 40.848 102.886 40.848 102.888C40.848 102.891 40.848 102.893 40.848 102.896C40.848 102.898 40.848 102.9 40.848 102.903C40.848 102.905 40.848 102.907 40.848 102.91C40.848 102.912 40.848 102.915 40.848 102.917C40.848 102.919 40.848 102.922 40.848 102.924C40.848 102.927 40.848 102.929 40.848 102.931C40.848 102.934 40.848 102.936 40.848 102.939C40.848 102.941 40.848 102.943 40.848 102.946C40.848 102.948 40.848 102.951 40.848 102.953C40.848 102.955 40.848 102.958 40.848 102.96C40.848 102.963 40.848 102.965 40.848 102.967C40.848 102.97 40.848 102.972 40.848 102.975C40.848 102.977 40.848 102.979 40.848 102.982C40.848 102.984 40.848 102.987 40.848 102.989C40.848 102.992 40.848 102.994 40.848 102.996C40.848 102.999 40.848 103.001 40.848 103.004C40.848 103.006 40.848 103.009 40.848 103.011C40.848 103.013 40.848 103.016 40.848 103.018C40.848 103.021 40.848 103.023 40.848 103.026C40.848 103.028 40.848 103.031 40.848 103.033C40.848 103.035 40.848 103.038 40.848 103.04C40.848 103.043 40.848 103.045 40.848 103.048C40.848 103.05 40.848 103.053 40.848 103.055C40.848 103.057 40.848 103.06 40.848 103.062C40.848 103.065 40.848 103.067 40.848 103.07C40.848 103.072 40.848 103.075 40.848 103.077C40.848 103.08 40.848 103.082 40.848 103.084C40.848 103.087 40.848 103.089 40.848 103.092C40.848 103.094 40.848 103.097 40.848 103.099C40.848 103.102 40.848 103.104 40.848 103.107C40.848 103.109 40.848 103.112 40.848 103.114C40.848 103.117 40.848 103.119 40.848 103.122C40.848 103.124 40.848 103.127 40.848 103.129C40.848 103.131 40.848 103.134 40.848 103.136C40.848 103.139 40.848 103.141 40.848 103.144C40.848 103.146 40.848 103.149 40.848 103.151C40.848 103.154 40.848 103.156 40.848 103.159C40.848 103.161 40.848 103.164 40.848 103.166C40.848 103.169 40.848 103.171 40.848 103.174C40.848 103.176 40.848 103.179 40.848 103.181C40.848 103.184 40.848 103.186 40.848 103.189C40.848 103.191 40.848 103.194 40.848 103.196C40.848 103.199 40.848 103.202 40.848 103.204C40.848 103.207 40.848 103.209 40.848 103.212C40.848 103.214 40.848 103.217 40.848 103.219C40.848 103.222 40.848 103.224 40.848 103.227C40.848 103.229 40.848 103.232 40.848 103.234C40.848 103.237 40.848 103.239 40.848 103.242C40.848 103.244 40.848 103.247 40.848 103.25C40.848 103.252 40.848 103.255 40.848 103.257C40.848 103.26 40.848 103.262 40.848 103.265C40.848 103.267 40.848 103.27 40.848 103.272C40.848 103.275 40.848 103.277 40.848 103.28C40.848 103.283 40.848 103.285 40.848 103.288C40.848 103.29 40.848 103.293 40.848 103.295C40.848 103.298 40.848 103.3 40.848 103.303C40.848 103.306 40.848 103.308 40.848 103.311C40.848 103.313 40.848 103.316 40.848 103.318C40.848 103.321 40.848 103.324 40.848 103.326C40.848 103.329 40.848 103.331 40.848 103.334C40.848 103.336 40.848 103.339 40.848 103.342C40.848 103.344 40.848 103.347 40.848 103.349C40.848 103.352 40.848 103.354 40.848 103.357C40.848 103.36 40.848 103.362 40.848 103.365C40.848 103.367 40.848 103.37 40.848 103.373C40.848 103.375 40.848 103.378 40.848 103.38C40.848 103.383 40.848 103.386 40.848 103.388C40.848 103.391 40.848 103.393 40.848 103.396C40.848 103.399 40.848 103.401 40.848 103.404C40.848 103.406 40.848 103.409 40.848 103.412C40.848 103.414 40.848 103.417 40.848 103.419C40.848 103.422 40.848 103.425 40.848 103.427C40.848 103.43 40.848 103.432 40.848 103.435C40.848 103.438 40.848 103.44 40.848 103.443C40.848 103.446 40.848 103.448 40.848 103.451C40.848 103.453 40.848 103.456 40.848 103.459C40.848 103.461 40.848 103.464 40.848 103.467C40.848 103.469 40.848 103.472 40.848 103.474C40.848 103.477 40.848 103.48 40.848 103.482C40.848 103.485 40.848 103.488 40.848 103.49C40.848 103.493 40.848 103.495 40.848 103.498C40.848 103.501 40.848 103.503 40.848 103.506C40.848 103.509 40.848 103.511 40.848 103.514C40.848 103.517 40.848 103.519 40.848 103.522C40.848 103.525 40.848 103.527 40.848 103.53C40.848 103.533 40.848 103.535 40.848 103.538C40.848 103.541 40.848 103.543 40.848 103.546C40.848 103.549 40.848 103.551 40.848 103.554C40.848 103.557 40.848 103.559 40.848 103.562C40.848 103.565 40.848 103.567 40.848 103.57C40.848 103.573 40.848 103.575 40.848 103.578C40.848 103.581 40.848 103.583 40.848 103.586C40.848 103.589 40.848 103.591 40.848 103.594C40.848 103.597 40.848 103.599 40.848 103.602C40.848 103.605 40.848 103.607 40.848 103.61C40.848 103.613 40.848 103.615 40.848 103.618C40.848 103.621 40.848 103.624 40.848 103.626C40.848 103.629 40.848 103.632 40.848 103.634C40.848 103.637 40.848 103.64 40.848 103.642C40.848 103.645 40.848 103.648 40.848 103.651C40.848 103.653 40.848 103.656 40.848 103.659C40.848 103.661 40.848 103.664 40.848 103.667C40.848 103.67 40.848 103.672 40.848 103.675C40.848 103.678 40.848 103.68 40.848 103.683C40.848 103.686 40.848 103.689 40.848 103.691C40.848 103.694 40.848 103.697 40.848 103.699C40.848 103.702 40.848 103.705 40.848 103.708C40.848 103.71 40.848 103.713 40.848 103.716C40.848 103.719 40.848 103.721 40.848 103.724C40.848 103.727 40.848 103.729 40.848 103.732C40.848 103.735 40.848 103.738 40.848 103.74C40.848 103.743 40.848 103.746 40.848 103.749C40.848 103.751 40.848 103.754 40.848 103.757C40.848 103.76 40.848 103.762 40.848 103.765C40.848 103.768 40.848 103.771 40.848 103.773C40.848 103.776 40.848 103.779 40.848 103.782C40.848 103.784 40.848 103.787 40.848 103.79C40.848 103.793 40.848 103.795 40.848 103.798C40.848 103.801 40.848 103.804 40.848 103.807C40.848 103.809 40.848 103.812 40.848 103.815C40.848 103.818 40.848 103.82 40.848 103.823C40.848 103.826 40.848 103.829 40.848 103.831C40.848 103.834 40.848 103.837 40.848 103.84C40.848 103.843 40.848 103.845 40.848 103.848C40.848 103.851 40.848 103.854 40.848 103.857C40.848 103.859 40.848 103.862 40.848 103.865C40.848 103.868 40.848 103.87 40.848 103.873C40.848 103.876 40.848 103.879 40.848 103.882C40.848 103.884 40.848 103.887 40.848 103.89C40.848 103.893 40.848 103.896 40.848 103.898C40.848 103.901 40.848 103.904 40.848 103.907C40.848 103.91 40.848 103.913 40.848 103.915C40.848 103.918 40.848 103.921 40.848 103.924C40.848 103.927 40.848 103.929 40.848 103.932C40.848 103.935 40.848 103.938 40.848 103.941C40.848 103.943 40.848 103.946 40.848 103.949C40.848 103.952 40.848 103.955 40.848 103.958C40.848 103.96 40.848 103.963 40.848 103.966C40.848 103.969 40.848 103.972 40.848 103.975C40.848 103.977 40.848 103.98 40.848 103.983C40.848 103.986 40.848 103.989 40.848 103.992C40.848 103.994 40.848 103.997 40.848 104C40.848 104.003 40.848 104.006 40.848 104.009C40.848 104.012 40.848 104.014 40.848 104.017C40.848 104.02 40.848 104.023 40.848 104.026C40.848 104.029 40.848 104.031 40.848 104.034C40.848 104.037 40.848 104.04 40.848 104.043C40.848 104.046 40.848 104.049 40.848 104.051C40.848 104.054 40.848 104.057 40.848 104.06C40.848 104.063 40.848 104.066 40.848 104.069C40.848 104.072 40.848 104.074 40.848 104.077C40.848 104.08 40.848 104.083 40.848 104.086C40.848 104.089 40.848 104.092 40.848 104.095C40.848 104.097 40.848 104.1 40.848 104.103C40.848 104.106 40.848 104.109 40.848 104.112C40.848 104.115 40.848 104.118 40.848 104.121C40.848 104.123 40.848 104.126 40.848 104.129C40.848 104.132 40.848 104.135 40.848 104.138C40.848 104.141 40.848 104.144 40.848 104.147C40.848 104.149 40.848 104.152 40.848 104.155C40.848 104.158 40.848 104.161 40.848 104.164C40.848 104.167 40.848 104.17 40.848 104.173C40.848 104.176 40.848 104.179 40.848 104.181C40.848 104.184 40.848 104.187 40.848 104.19C40.848 104.193 40.848 104.196 40.848 104.199C40.848 104.202 40.848 104.205 40.848 104.208C40.848 104.211 40.848 104.214 40.848 104.216C40.848 104.219 40.848 104.222 40.848 104.225C40.848 104.228 40.848 104.231 40.848 104.234C40.848 104.237 40.848 104.24 40.848 104.243C40.848 104.246 40.848 104.249 40.848 104.252C40.848 104.255 40.848 104.258 40.848 104.261C40.848 104.263 40.848 104.266 40.848 104.269C40.848 104.272 40.848 104.275 40.848 104.278C40.848 104.281 40.848 104.284 40.848 104.287C40.848 104.29 40.848 104.293 40.848 104.296C40.848 104.299 40.848 104.302 40.848 104.305C40.848 104.308 40.848 104.311 40.848 104.314C40.848 104.317 40.848 104.32 40.848 104.323C40.848 104.326 40.848 104.328 40.848 104.331C40.848 104.334 40.848 104.337 40.848 104.34C40.848 104.343 40.848 104.346 40.848 104.349C40.848 104.352 40.848 104.355 40.848 104.358C40.848 104.361 40.848 104.364 40.848 104.367C40.848 104.37 40.848 104.373 40.848 104.376C40.848 104.379 40.848 104.382 40.848 104.385C40.848 104.388 40.848 104.391 40.848 104.394C40.848 104.397 40.848 104.4 40.848 104.403C40.848 104.406 40.848 104.409 40.848 104.412C40.848 104.415 40.848 104.418 40.848 104.421C40.848 104.424 40.848 104.427 40.848 104.43C40.848 104.433 40.848 104.436 40.848 104.439C40.848 104.442 40.848 104.445 40.848 104.448C40.848 104.451 40.848 104.454 40.848 104.457C40.848 104.46 40.848 104.463 40.848 104.466C40.848 104.469 40.848 104.472 40.848 104.475C40.848 104.478 40.848 104.481 40.848 104.484C40.848 104.487 40.848 104.49 40.848 104.493C40.848 104.496 40.848 104.499 40.848 104.502C40.848 104.505 40.848 104.509 40.848 104.512C40.848 104.515 40.848 104.518 40.848 104.521C40.848 104.524 40.848 104.527 40.848 104.53C40.848 104.533 40.848 104.536 40.848 104.539C40.848 104.542 40.848 104.545 40.848 104.548C40.848 104.551 40.848 104.554 40.848 104.557C40.848 104.56 40.848 104.563 40.848 104.566C40.848 104.569 40.848 104.572 40.848 104.576C40.848 104.579 40.848 104.582 40.848 104.585C40.848 104.588 40.848 104.591 40.848 104.594C40.848 104.597 40.848 104.6 40.848 104.603C40.848 104.606 40.848 104.609 40.848 104.612C40.848 104.615 40.848 104.618 40.848 104.622C40.848 104.625 40.848 104.628 40.848 104.631C40.848 104.634 40.848 104.637 40.848 104.64C40.848 104.643 40.848 104.646 40.848 104.649C40.848 104.652 40.848 104.655 40.848 104.658C40.848 104.662 40.848 104.665 40.848 104.668C40.848 104.671 40.848 104.674 40.848 104.677C40.848 104.68 40.848 104.683 40.848 104.686C40.848 104.689 40.848 104.693 40.848 104.696C40.848 104.699 40.848 104.702 40.848 104.705C40.848 104.708 40.848 104.711 40.848 104.714C40.848 104.717 40.848 104.72 40.848 104.724C40.848 104.727 40.848 104.73 40.848 104.733C40.848 104.736 40.848 104.739 40.848 104.742C40.848 104.745 40.848 104.748 40.848 104.752C40.848 104.755 40.848 104.758 40.848 104.761C40.848 104.764 40.848 104.767 40.848 104.77C40.848 104.773 40.848 104.777 40.848 104.78C40.848 104.783 40.848 104.786 40.848 104.789C40.848 104.792 40.848 104.795 40.848 104.799C40.848 104.802 40.848 104.805 40.848 104.808C40.848 104.811 40.848 104.814 40.848 104.817C40.848 104.821 40.848 104.824 40.848 104.827C40.848 104.83 40.848 104.833 40.848 104.836C40.848 104.839 40.848 104.843 40.848 104.846C40.848 104.849 40.848 104.852 40.848 104.855C40.848 104.858 40.848 104.861 40.848 104.865C40.848 104.868 40.848 104.871 40.848 104.874C40.848 104.877 40.848 104.88 40.848 104.884C40.848 104.887 40.848 104.89 40.848 104.893C40.848 104.896 40.848 104.899 40.848 104.903C40.848 104.906 40.848 104.909 40.848 104.912C40.848 104.915 40.848 104.919 40.848 104.922C40.848 104.925 40.848 104.928 40.848 104.931C40.848 104.934 40.848 104.938 40.848 104.941C40.848 104.944 40.848 104.947 40.848 104.95C40.848 104.954 40.848 104.957 40.848 104.96C40.848 104.963 40.848 104.966 40.848 104.97C40.848 104.973 40.848 104.976 40.848 104.979C40.848 104.982 40.848 104.986 40.848 104.989C40.848 104.992 40.848 104.995 40.848 104.998C40.848 105.002 40.848 105.005 40.848 105.008C40.848 105.011 40.848 105.014 40.848 105.018C40.848 105.021 40.848 105.024 40.848 105.027C40.848 105.03 40.848 105.034 40.848 105.037C40.848 105.04 40.848 105.043 40.848 105.047C40.848 105.05 40.848 105.053 40.848 105.056C40.848 105.059 40.848 105.063 40.848 105.066C40.848 105.069 40.848 105.072 40.848 105.076C40.848 105.079 40.848 105.082 40.848 105.085C40.848 105.089 40.848 105.092 40.848 105.095C40.848 105.098 40.848 105.102 40.848 105.105C40.848 105.108 40.848 105.111 40.848 105.114C40.848 105.118 40.848 105.121 40.848 105.124C40.848 105.127 40.848 105.131 40.848 105.134C40.848 105.137 40.848 105.14 40.848 105.144C40.848 105.147 40.848 105.15 40.848 105.154C40.848 105.157 40.848 105.16 40.848 105.163C40.848 105.167 40.848 105.17 40.848 105.173C40.848 105.176 40.848 105.18 40.848 105.183C40.848 105.186 40.848 105.189 40.848 105.193C40.848 105.196 40.848 105.199 40.848 105.203C40.848 105.206 40.848 105.209 40.848 105.212C40.848 105.216 40.848 105.219 40.848 105.222C40.848 105.225 40.848 105.229 40.848 105.232C40.848 105.235 40.848 105.239 40.848 105.242C40.848 105.245 40.848 105.248 40.848 105.252C40.848 105.255 40.848 105.258 40.848 105.262C40.848 105.265 40.848 105.268 40.848 105.272C40.848 105.275 40.848 105.278 40.848 105.281C40.848 105.285 40.848 105.288 40.848 105.291C40.848 105.295 40.848 105.298 40.848 105.301C40.848 105.305 40.848 105.308 40.848 105.311C40.848 105.315 40.848 105.318 40.848 105.321C40.848 105.324 40.848 105.328 40.848 105.331C40.848 105.334 40.848 105.338 40.848 105.341C40.848 105.344 40.848 105.348 40.848 105.351C40.848 105.354 40.848 105.358 40.848 105.361C40.848 105.364 40.848 105.368 40.848 105.371C40.848 105.374 40.848 105.378 40.848 105.381C40.848 105.384 40.848 105.388 40.848 105.391C40.848 105.394 40.848 105.398 40.848 105.401C40.848 105.404 40.848 105.408 40.848 105.411C40.848 105.414 40.848 105.418 40.848 105.421C40.848 105.424 40.848 105.428 40.848 105.431C40.848 105.434 40.848 105.438 40.848 105.441C40.848 105.445 40.848 105.448 40.848 105.451C40.848 105.455 40.848 105.458 40.848 105.461C40.848 105.465 40.848 105.468 40.848 105.471C40.848 105.475 40.848 105.478 40.848 105.482C40.848 105.485 40.848 105.488 40.848 105.492C40.848 105.495 40.848 105.498 40.848 105.502C40.848 105.505 40.848 105.508 40.848 105.512C40.848 105.515 40.848 105.519 40.848 105.522C40.848 105.525 40.848 105.529 40.848 105.532C40.848 105.536 40.848 105.539 40.848 105.542C40.848 105.546 40.848 105.549 40.848 105.552C40.848 105.556 40.848 105.559 40.848 105.563C40.848 105.566 40.848 105.569 40.848 105.573C40.848 105.576 40.848 105.58 40.848 105.583C40.848 105.586 40.848 105.59 40.848 105.593C40.848 105.597 40.848 105.6 40.848 105.603C40.848 105.607 40.848 105.61 40.848 105.614C40.848 105.617 40.848 105.621 40.848 105.624C40.848 105.627 40.848 105.631 40.848 105.634C40.848 105.638 40.848 105.641 40.848 105.644C40.848 105.648 40.848 105.651 40.848 105.655C40.848 105.658 40.848 105.662 40.848 105.665C40.848 105.668 40.848 105.672 40.848 105.675C40.848 105.679 40.848 105.682 40.848 105.686C40.848 105.689 40.848 105.692 40.848 105.696C40.848 105.699 40.848 105.703 40.848 105.706C40.848 105.71 40.848 105.713 40.848 105.717C40.848 105.72 40.848 105.723 40.848 105.727C40.848 105.73 40.848 105.734 40.848 105.737C40.848 105.741 40.848 105.744 40.848 105.748C40.848 105.751 40.848 105.754 40.848 105.758C40.848 105.761 40.848 105.765 40.848 105.768C40.848 105.772 40.848 105.775 40.848 105.779C40.848 105.782 40.848 105.786 40.848 105.789C40.848 105.793 40.848 105.796 40.848 105.799C40.848 105.803 40.848 105.806 40.848 105.81C40.848 105.813 40.848 105.817 40.848 105.82C40.848 105.824 40.848 105.827 40.848 105.831C40.848 105.834 40.848 105.838 40.848 105.841C40.848 105.845 40.848 105.848 40.848 105.852C40.848 105.855 40.848 105.859 40.848 105.862C40.848 105.866 40.848 105.869 40.848 105.873C40.848 105.876 40.848 105.88 40.848 105.883C40.848 105.887 40.848 105.89 40.848 105.894C40.848 105.897 40.848 105.901 40.848 105.904C40.848 105.908 40.848 105.911 40.848 105.915C40.848 105.918 40.848 105.922 40.848 105.925C40.848 105.929 40.848 105.932 40.848 105.936C40.848 105.939 40.848 105.943 40.848 105.946C40.848 105.95 40.848 105.953 40.848 105.957C40.848 105.96 40.848 105.964 40.848 105.967C40.848 105.971 40.848 105.974 40.848 105.978C40.848 105.981 40.848 105.985 40.848 105.988C40.848 105.992 40.848 105.996 40.848 105.999C40.848 106.003 40.848 106.006 40.848 106.01C40.848 106.013 40.848 106.017 40.848 106.02C40.848 106.024 40.848 106.027 40.848 106.031C40.848 106.034 40.848 106.038 40.848 106.042C40.848 106.045 40.848 106.049 40.848 106.052C40.848 106.056 40.848 106.059 40.848 106.063C40.848 106.066 40.848 106.07 40.848 106.073C40.848 106.077 40.848 106.081 40.848 106.084C40.848 106.088 40.848 106.091 40.848 106.095C40.848 106.098 40.848 106.102 40.848 106.106C40.848 106.109 40.848 106.113 40.848 106.116C40.848 106.12 40.848 106.123 40.848 106.127C40.848 106.13 40.848 106.134 40.848 106.138C40.848 106.141 40.848 106.145 40.848 106.148C40.848 106.152 40.848 106.156 40.848 106.159C40.848 106.163 40.848 106.166 40.848 106.17C40.848 106.173 40.848 106.177 40.848 106.181C40.848 106.184 40.848 106.188 40.848 106.191C40.848 106.195 40.848 106.199 40.848 106.202C40.848 106.206 40.848 106.209 40.848 106.213C40.848 106.217 40.848 106.22 40.848 106.224C40.848 106.227 40.848 106.231 40.848 106.235C40.848 106.238 40.848 106.242 40.848 106.245C40.848 106.249 40.848 106.253 40.848 106.256C40.848 106.26 40.848 106.263 40.848 106.267C40.848 106.271 40.848 106.274 40.848 106.278C40.848 106.282 40.848 106.285 40.848 106.289C40.848 106.292 40.848 106.296 40.848 106.3C40.848 106.303 40.848 106.307 40.848 106.311C40.848 106.314 40.848 106.318 40.848 106.321C40.848 106.325 40.848 106.329 40.848 106.332C40.848 106.336 40.848 106.34 40.848 106.343C40.848 106.347 40.848 106.35 40.848 106.354C40.848 106.358 40.848 106.361 40.848 106.365C40.848 106.369 40.848 106.372 40.848 106.376C40.848 106.38 40.848 106.383 40.848 106.387C40.848 106.391 40.848 106.394 40.848 106.398C40.848 106.402 40.848 106.405 40.848 106.409C40.848 106.413 40.848 106.416 40.848 106.42C40.848 106.424 40.848 106.427 40.848 106.431C40.848 106.435 40.848 106.438 40.848 106.442C40.848 106.446 40.848 106.449 40.848 106.453C40.848 106.457 40.848 106.46 40.848 106.464C40.848 106.468 40.848 106.471 40.848 106.475C40.848 106.479 40.848 106.482 40.848 106.486C40.848 106.49 40.848 106.493 40.848 106.497C40.848 106.501 40.848 106.504 40.848 106.508C40.848 106.512 40.848 106.515 40.848 106.519C40.848 106.523 40.848 106.526 40.848 106.53C40.848 106.534 40.848 106.538 40.848 106.541C40.848 106.545 40.848 106.549 40.848 106.552C40.848 106.556 40.848 106.56 40.848 106.563C40.848 106.567 40.848 106.571 40.848 106.575C40.848 106.578 40.848 106.582 40.848 106.586C40.848 106.589 40.848 106.593 40.848 106.597C40.848 106.601 40.848 106.604 40.848 106.608C40.848 106.612 40.848 106.615 40.848 106.619C40.848 106.623 40.848 106.627 40.848 106.63C40.848 106.634 40.848 106.638 40.848 106.641C40.848 106.645 40.848 106.649 40.848 106.653C40.848 106.656 40.848 106.66 40.848 106.664C40.848 106.668 40.848 106.671 40.848 106.675C40.848 106.679 40.848 106.683 40.848 106.686C40.848 106.69 40.848 106.694 40.848 106.698C40.848 106.701 40.848 106.705 40.848 106.709C40.848 106.713 40.848 106.716 40.848 106.72H44.848C44.848 106.716 44.848 106.713 44.848 106.709C44.848 106.705 44.848 106.701 44.848 106.698C44.848 106.694 44.848 106.69 44.848 106.686C44.848 106.683 44.848 106.679 44.848 106.675C44.848 106.671 44.848 106.668 44.848 106.664C44.848 106.66 44.848 106.656 44.848 106.653C44.848 106.649 44.848 106.645 44.848 106.641C44.848 106.638 44.848 106.634 44.848 106.63C44.848 106.627 44.848 106.623 44.848 106.619C44.848 106.615 44.848 106.612 44.848 106.608C44.848 106.604 44.848 106.601 44.848 106.597C44.848 106.593 44.848 106.589 44.848 106.586C44.848 106.582 44.848 106.578 44.848 106.575C44.848 106.571 44.848 106.567 44.848 106.563C44.848 106.56 44.848 106.556 44.848 106.552C44.848 106.549 44.848 106.545 44.848 106.541C44.848 106.538 44.848 106.534 44.848 106.53C44.848 106.526 44.848 106.523 44.848 106.519C44.848 106.515 44.848 106.512 44.848 106.508C44.848 106.504 44.848 106.501 44.848 106.497C44.848 106.493 44.848 106.49 44.848 106.486C44.848 106.482 44.848 106.479 44.848 106.475C44.848 106.471 44.848 106.468 44.848 106.464C44.848 106.46 44.848 106.457 44.848 106.453C44.848 106.449 44.848 106.446 44.848 106.442C44.848 106.438 44.848 106.435 44.848 106.431C44.848 106.427 44.848 106.424 44.848 106.42C44.848 106.416 44.848 106.413 44.848 106.409C44.848 106.405 44.848 106.402 44.848 106.398C44.848 106.394 44.848 106.391 44.848 106.387C44.848 106.383 44.848 106.38 44.848 106.376C44.848 106.372 44.848 106.369 44.848 106.365C44.848 106.361 44.848 106.358 44.848 106.354C44.848 106.35 44.848 106.347 44.848 106.343C44.848 106.34 44.848 106.336 44.848 106.332C44.848 106.329 44.848 106.325 44.848 106.321C44.848 106.318 44.848 106.314 44.848 106.311C44.848 106.307 44.848 106.303 44.848 106.3C44.848 106.296 44.848 106.292 44.848 106.289C44.848 106.285 44.848 106.282 44.848 106.278C44.848 106.274 44.848 106.271 44.848 106.267C44.848 106.263 44.848 106.26 44.848 106.256C44.848 106.253 44.848 106.249 44.848 106.245C44.848 106.242 44.848 106.238 44.848 106.235C44.848 106.231 44.848 106.227 44.848 106.224C44.848 106.22 44.848 106.217 44.848 106.213C44.848 106.209 44.848 106.206 44.848 106.202C44.848 106.199 44.848 106.195 44.848 106.191C44.848 106.188 44.848 106.184 44.848 106.181C44.848 106.177 44.848 106.173 44.848 106.17C44.848 106.166 44.848 106.163 44.848 106.159C44.848 106.156 44.848 106.152 44.848 106.148C44.848 106.145 44.848 106.141 44.848 106.138C44.848 106.134 44.848 106.13 44.848 106.127C44.848 106.123 44.848 106.12 44.848 106.116C44.848 106.113 44.848 106.109 44.848 106.106C44.848 106.102 44.848 106.098 44.848 106.095C44.848 106.091 44.848 106.088 44.848 106.084C44.848 106.081 44.848 106.077 44.848 106.073C44.848 106.07 44.848 106.066 44.848 106.063C44.848 106.059 44.848 106.056 44.848 106.052C44.848 106.049 44.848 106.045 44.848 106.042C44.848 106.038 44.848 106.034 44.848 106.031C44.848 106.027 44.848 106.024 44.848 106.02C44.848 106.017 44.848 106.013 44.848 106.01C44.848 106.006 44.848 106.003 44.848 105.999C44.848 105.996 44.848 105.992 44.848 105.988C44.848 105.985 44.848 105.981 44.848 105.978C44.848 105.974 44.848 105.971 44.848 105.967C44.848 105.964 44.848 105.96 44.848 105.957C44.848 105.953 44.848 105.95 44.848 105.946C44.848 105.943 44.848 105.939 44.848 105.936C44.848 105.932 44.848 105.929 44.848 105.925C44.848 105.922 44.848 105.918 44.848 105.915C44.848 105.911 44.848 105.908 44.848 105.904C44.848 105.901 44.848 105.897 44.848 105.894C44.848 105.89 44.848 105.887 44.848 105.883C44.848 105.88 44.848 105.876 44.848 105.873C44.848 105.869 44.848 105.866 44.848 105.862C44.848 105.859 44.848 105.855 44.848 105.852C44.848 105.848 44.848 105.845 44.848 105.841C44.848 105.838 44.848 105.834 44.848 105.831C44.848 105.827 44.848 105.824 44.848 105.82C44.848 105.817 44.848 105.813 44.848 105.81C44.848 105.806 44.848 105.803 44.848 105.799C44.848 105.796 44.848 105.793 44.848 105.789C44.848 105.786 44.848 105.782 44.848 105.779C44.848 105.775 44.848 105.772 44.848 105.768C44.848 105.765 44.848 105.761 44.848 105.758C44.848 105.754 44.848 105.751 44.848 105.748C44.848 105.744 44.848 105.741 44.848 105.737C44.848 105.734 44.848 105.73 44.848 105.727C44.848 105.723 44.848 105.72 44.848 105.717C44.848 105.713 44.848 105.71 44.848 105.706C44.848 105.703 44.848 105.699 44.848 105.696C44.848 105.692 44.848 105.689 44.848 105.686C44.848 105.682 44.848 105.679 44.848 105.675C44.848 105.672 44.848 105.668 44.848 105.665C44.848 105.662 44.848 105.658 44.848 105.655C44.848 105.651 44.848 105.648 44.848 105.644C44.848 105.641 44.848 105.638 44.848 105.634C44.848 105.631 44.848 105.627 44.848 105.624C44.848 105.621 44.848 105.617 44.848 105.614C44.848 105.61 44.848 105.607 44.848 105.603C44.848 105.6 44.848 105.597 44.848 105.593C44.848 105.59 44.848 105.586 44.848 105.583C44.848 105.58 44.848 105.576 44.848 105.573C44.848 105.569 44.848 105.566 44.848 105.563C44.848 105.559 44.848 105.556 44.848 105.552C44.848 105.549 44.848 105.546 44.848 105.542C44.848 105.539 44.848 105.536 44.848 105.532C44.848 105.529 44.848 105.525 44.848 105.522C44.848 105.519 44.848 105.515 44.848 105.512C44.848 105.508 44.848 105.505 44.848 105.502C44.848 105.498 44.848 105.495 44.848 105.492C44.848 105.488 44.848 105.485 44.848 105.482C44.848 105.478 44.848 105.475 44.848 105.471C44.848 105.468 44.848 105.465 44.848 105.461C44.848 105.458 44.848 105.455 44.848 105.451C44.848 105.448 44.848 105.445 44.848 105.441C44.848 105.438 44.848 105.434 44.848 105.431C44.848 105.428 44.848 105.424 44.848 105.421C44.848 105.418 44.848 105.414 44.848 105.411C44.848 105.408 44.848 105.404 44.848 105.401C44.848 105.398 44.848 105.394 44.848 105.391C44.848 105.388 44.848 105.384 44.848 105.381C44.848 105.378 44.848 105.374 44.848 105.371C44.848 105.368 44.848 105.364 44.848 105.361C44.848 105.358 44.848 105.354 44.848 105.351C44.848 105.348 44.848 105.344 44.848 105.341C44.848 105.338 44.848 105.334 44.848 105.331C44.848 105.328 44.848 105.324 44.848 105.321C44.848 105.318 44.848 105.315 44.848 105.311C44.848 105.308 44.848 105.305 44.848 105.301C44.848 105.298 44.848 105.295 44.848 105.291C44.848 105.288 44.848 105.285 44.848 105.281C44.848 105.278 44.848 105.275 44.848 105.272C44.848 105.268 44.848 105.265 44.848 105.262C44.848 105.258 44.848 105.255 44.848 105.252C44.848 105.248 44.848 105.245 44.848 105.242C44.848 105.239 44.848 105.235 44.848 105.232C44.848 105.229 44.848 105.225 44.848 105.222C44.848 105.219 44.848 105.216 44.848 105.212C44.848 105.209 44.848 105.206 44.848 105.203C44.848 105.199 44.848 105.196 44.848 105.193C44.848 105.189 44.848 105.186 44.848 105.183C44.848 105.18 44.848 105.176 44.848 105.173C44.848 105.17 44.848 105.167 44.848 105.163C44.848 105.16 44.848 105.157 44.848 105.154C44.848 105.15 44.848 105.147 44.848 105.144C44.848 105.14 44.848 105.137 44.848 105.134C44.848 105.131 44.848 105.127 44.848 105.124C44.848 105.121 44.848 105.118 44.848 105.114C44.848 105.111 44.848 105.108 44.848 105.105C44.848 105.102 44.848 105.098 44.848 105.095C44.848 105.092 44.848 105.089 44.848 105.085C44.848 105.082 44.848 105.079 44.848 105.076C44.848 105.072 44.848 105.069 44.848 105.066C44.848 105.063 44.848 105.059 44.848 105.056C44.848 105.053 44.848 105.05 44.848 105.047C44.848 105.043 44.848 105.04 44.848 105.037C44.848 105.034 44.848 105.03 44.848 105.027C44.848 105.024 44.848 105.021 44.848 105.018C44.848 105.014 44.848 105.011 44.848 105.008C44.848 105.005 44.848 105.002 44.848 104.998C44.848 104.995 44.848 104.992 44.848 104.989C44.848 104.986 44.848 104.982 44.848 104.979C44.848 104.976 44.848 104.973 44.848 104.97C44.848 104.966 44.848 104.963 44.848 104.96C44.848 104.957 44.848 104.954 44.848 104.95C44.848 104.947 44.848 104.944 44.848 104.941C44.848 104.938 44.848 104.934 44.848 104.931C44.848 104.928 44.848 104.925 44.848 104.922C44.848 104.919 44.848 104.915 44.848 104.912C44.848 104.909 44.848 104.906 44.848 104.903C44.848 104.899 44.848 104.896 44.848 104.893C44.848 104.89 44.848 104.887 44.848 104.884C44.848 104.88 44.848 104.877 44.848 104.874C44.848 104.871 44.848 104.868 44.848 104.865C44.848 104.861 44.848 104.858 44.848 104.855C44.848 104.852 44.848 104.849 44.848 104.846C44.848 104.843 44.848 104.839 44.848 104.836C44.848 104.833 44.848 104.83 44.848 104.827C44.848 104.824 44.848 104.821 44.848 104.817C44.848 104.814 44.848 104.811 44.848 104.808C44.848 104.805 44.848 104.802 44.848 104.799C44.848 104.795 44.848 104.792 44.848 104.789C44.848 104.786 44.848 104.783 44.848 104.78C44.848 104.777 44.848 104.773 44.848 104.77C44.848 104.767 44.848 104.764 44.848 104.761C44.848 104.758 44.848 104.755 44.848 104.752C44.848 104.748 44.848 104.745 44.848 104.742C44.848 104.739 44.848 104.736 44.848 104.733C44.848 104.73 44.848 104.727 44.848 104.724C44.848 104.72 44.848 104.717 44.848 104.714C44.848 104.711 44.848 104.708 44.848 104.705C44.848 104.702 44.848 104.699 44.848 104.696C44.848 104.693 44.848 104.689 44.848 104.686C44.848 104.683 44.848 104.68 44.848 104.677C44.848 104.674 44.848 104.671 44.848 104.668C44.848 104.665 44.848 104.662 44.848 104.658C44.848 104.655 44.848 104.652 44.848 104.649C44.848 104.646 44.848 104.643 44.848 104.64C44.848 104.637 44.848 104.634 44.848 104.631C44.848 104.628 44.848 104.625 44.848 104.622C44.848 104.618 44.848 104.615 44.848 104.612C44.848 104.609 44.848 104.606 44.848 104.603C44.848 104.6 44.848 104.597 44.848 104.594C44.848 104.591 44.848 104.588 44.848 104.585C44.848 104.582 44.848 104.579 44.848 104.576C44.848 104.572 44.848 104.569 44.848 104.566C44.848 104.563 44.848 104.56 44.848 104.557C44.848 104.554 44.848 104.551 44.848 104.548C44.848 104.545 44.848 104.542 44.848 104.539C44.848 104.536 44.848 104.533 44.848 104.53C44.848 104.527 44.848 104.524 44.848 104.521C44.848 104.518 44.848 104.515 44.848 104.512C44.848 104.509 44.848 104.505 44.848 104.502C44.848 104.499 44.848 104.496 44.848 104.493C44.848 104.49 44.848 104.487 44.848 104.484C44.848 104.481 44.848 104.478 44.848 104.475C44.848 104.472 44.848 104.469 44.848 104.466C44.848 104.463 44.848 104.46 44.848 104.457C44.848 104.454 44.848 104.451 44.848 104.448C44.848 104.445 44.848 104.442 44.848 104.439C44.848 104.436 44.848 104.433 44.848 104.43C44.848 104.427 44.848 104.424 44.848 104.421C44.848 104.418 44.848 104.415 44.848 104.412C44.848 104.409 44.848 104.406 44.848 104.403C44.848 104.4 44.848 104.397 44.848 104.394C44.848 104.391 44.848 104.388 44.848 104.385C44.848 104.382 44.848 104.379 44.848 104.376C44.848 104.373 44.848 104.37 44.848 104.367C44.848 104.364 44.848 104.361 44.848 104.358C44.848 104.355 44.848 104.352 44.848 104.349C44.848 104.346 44.848 104.343 44.848 104.34C44.848 104.337 44.848 104.334 44.848 104.331C44.848 104.328 44.848 104.326 44.848 104.323C44.848 104.32 44.848 104.317 44.848 104.314C44.848 104.311 44.848 104.308 44.848 104.305C44.848 104.302 44.848 104.299 44.848 104.296C44.848 104.293 44.848 104.29 44.848 104.287C44.848 104.284 44.848 104.281 44.848 104.278C44.848 104.275 44.848 104.272 44.848 104.269C44.848 104.266 44.848 104.263 44.848 104.261C44.848 104.258 44.848 104.255 44.848 104.252C44.848 104.249 44.848 104.246 44.848 104.243C44.848 104.24 44.848 104.237 44.848 104.234C44.848 104.231 44.848 104.228 44.848 104.225C44.848 104.222 44.848 104.219 44.848 104.216C44.848 104.214 44.848 104.211 44.848 104.208C44.848 104.205 44.848 104.202 44.848 104.199C44.848 104.196 44.848 104.193 44.848 104.19C44.848 104.187 44.848 104.184 44.848 104.181C44.848 104.179 44.848 104.176 44.848 104.173C44.848 104.17 44.848 104.167 44.848 104.164C44.848 104.161 44.848 104.158 44.848 104.155C44.848 104.152 44.848 104.149 44.848 104.147C44.848 104.144 44.848 104.141 44.848 104.138C44.848 104.135 44.848 104.132 44.848 104.129C44.848 104.126 44.848 104.123 44.848 104.121C44.848 104.118 44.848 104.115 44.848 104.112C44.848 104.109 44.848 104.106 44.848 104.103C44.848 104.1 44.848 104.097 44.848 104.095C44.848 104.092 44.848 104.089 44.848 104.086C44.848 104.083 44.848 104.08 44.848 104.077C44.848 104.074 44.848 104.072 44.848 104.069C44.848 104.066 44.848 104.063 44.848 104.06C44.848 104.057 44.848 104.054 44.848 104.051C44.848 104.049 44.848 104.046 44.848 104.043C44.848 104.04 44.848 104.037 44.848 104.034C44.848 104.031 44.848 104.029 44.848 104.026C44.848 104.023 44.848 104.02 44.848 104.017C44.848 104.014 44.848 104.012 44.848 104.009C44.848 104.006 44.848 104.003 44.848 104C44.848 103.997 44.848 103.994 44.848 103.992C44.848 103.989 44.848 103.986 44.848 103.983C44.848 103.98 44.848 103.977 44.848 103.975C44.848 103.972 44.848 103.969 44.848 103.966C44.848 103.963 44.848 103.96 44.848 103.958C44.848 103.955 44.848 103.952 44.848 103.949C44.848 103.946 44.848 103.943 44.848 103.941C44.848 103.938 44.848 103.935 44.848 103.932C44.848 103.929 44.848 103.927 44.848 103.924C44.848 103.921 44.848 103.918 44.848 103.915C44.848 103.913 44.848 103.91 44.848 103.907C44.848 103.904 44.848 103.901 44.848 103.898C44.848 103.896 44.848 103.893 44.848 103.89C44.848 103.887 44.848 103.884 44.848 103.882C44.848 103.879 44.848 103.876 44.848 103.873C44.848 103.87 44.848 103.868 44.848 103.865C44.848 103.862 44.848 103.859 44.848 103.857C44.848 103.854 44.848 103.851 44.848 103.848C44.848 103.845 44.848 103.843 44.848 103.84C44.848 103.837 44.848 103.834 44.848 103.831C44.848 103.829 44.848 103.826 44.848 103.823C44.848 103.82 44.848 103.818 44.848 103.815C44.848 103.812 44.848 103.809 44.848 103.807C44.848 103.804 44.848 103.801 44.848 103.798C44.848 103.795 44.848 103.793 44.848 103.79C44.848 103.787 44.848 103.784 44.848 103.782C44.848 103.779 44.848 103.776 44.848 103.773C44.848 103.771 44.848 103.768 44.848 103.765C44.848 103.762 44.848 103.76 44.848 103.757C44.848 103.754 44.848 103.751 44.848 103.749C44.848 103.746 44.848 103.743 44.848 103.74C44.848 103.738 44.848 103.735 44.848 103.732C44.848 103.729 44.848 103.727 44.848 103.724C44.848 103.721 44.848 103.719 44.848 103.716C44.848 103.713 44.848 103.71 44.848 103.708C44.848 103.705 44.848 103.702 44.848 103.699C44.848 103.697 44.848 103.694 44.848 103.691C44.848 103.689 44.848 103.686 44.848 103.683C44.848 103.68 44.848 103.678 44.848 103.675C44.848 103.672 44.848 103.67 44.848 103.667C44.848 103.664 44.848 103.661 44.848 103.659C44.848 103.656 44.848 103.653 44.848 103.651C44.848 103.648 44.848 103.645 44.848 103.642C44.848 103.64 44.848 103.637 44.848 103.634C44.848 103.632 44.848 103.629 44.848 103.626C44.848 103.624 44.848 103.621 44.848 103.618C44.848 103.615 44.848 103.613 44.848 103.61C44.848 103.607 44.848 103.605 44.848 103.602C44.848 103.599 44.848 103.597 44.848 103.594C44.848 103.591 44.848 103.589 44.848 103.586C44.848 103.583 44.848 103.581 44.848 103.578C44.848 103.575 44.848 103.573 44.848 103.57C44.848 103.567 44.848 103.565 44.848 103.562C44.848 103.559 44.848 103.557 44.848 103.554C44.848 103.551 44.848 103.549 44.848 103.546C44.848 103.543 44.848 103.541 44.848 103.538C44.848 103.535 44.848 103.533 44.848 103.53C44.848 103.527 44.848 103.525 44.848 103.522C44.848 103.519 44.848 103.517 44.848 103.514C44.848 103.511 44.848 103.509 44.848 103.506C44.848 103.503 44.848 103.501 44.848 103.498C44.848 103.495 44.848 103.493 44.848 103.49C44.848 103.488 44.848 103.485 44.848 103.482C44.848 103.48 44.848 103.477 44.848 103.474C44.848 103.472 44.848 103.469 44.848 103.467C44.848 103.464 44.848 103.461 44.848 103.459C44.848 103.456 44.848 103.453 44.848 103.451C44.848 103.448 44.848 103.446 44.848 103.443C44.848 103.44 44.848 103.438 44.848 103.435C44.848 103.432 44.848 103.43 44.848 103.427C44.848 103.425 44.848 103.422 44.848 103.419C44.848 103.417 44.848 103.414 44.848 103.412C44.848 103.409 44.848 103.406 44.848 103.404C44.848 103.401 44.848 103.399 44.848 103.396C44.848 103.393 44.848 103.391 44.848 103.388C44.848 103.386 44.848 103.383 44.848 103.38C44.848 103.378 44.848 103.375 44.848 103.373C44.848 103.37 44.848 103.367 44.848 103.365C44.848 103.362 44.848 103.36 44.848 103.357C44.848 103.354 44.848 103.352 44.848 103.349C44.848 103.347 44.848 103.344 44.848 103.342C44.848 103.339 44.848 103.336 44.848 103.334C44.848 103.331 44.848 103.329 44.848 103.326C44.848 103.324 44.848 103.321 44.848 103.318C44.848 103.316 44.848 103.313 44.848 103.311C44.848 103.308 44.848 103.306 44.848 103.303C44.848 103.3 44.848 103.298 44.848 103.295C44.848 103.293 44.848 103.29 44.848 103.288C44.848 103.285 44.848 103.283 44.848 103.28C44.848 103.277 44.848 103.275 44.848 103.272C44.848 103.27 44.848 103.267 44.848 103.265C44.848 103.262 44.848 103.26 44.848 103.257C44.848 103.255 44.848 103.252 44.848 103.25C44.848 103.247 44.848 103.244 44.848 103.242C44.848 103.239 44.848 103.237 44.848 103.234C44.848 103.232 44.848 103.229 44.848 103.227C44.848 103.224 44.848 103.222 44.848 103.219C44.848 103.217 44.848 103.214 44.848 103.212C44.848 103.209 44.848 103.207 44.848 103.204C44.848 103.202 44.848 103.199 44.848 103.196C44.848 103.194 44.848 103.191 44.848 103.189C44.848 103.186 44.848 103.184 44.848 103.181C44.848 103.179 44.848 103.176 44.848 103.174C44.848 103.171 44.848 103.169 44.848 103.166C44.848 103.164 44.848 103.161 44.848 103.159C44.848 103.156 44.848 103.154 44.848 103.151C44.848 103.149 44.848 103.146 44.848 103.144C44.848 103.141 44.848 103.139 44.848 103.136C44.848 103.134 44.848 103.131 44.848 103.129C44.848 103.127 44.848 103.124 44.848 103.122C44.848 103.119 44.848 103.117 44.848 103.114C44.848 103.112 44.848 103.109 44.848 103.107C44.848 103.104 44.848 103.102 44.848 103.099C44.848 103.097 44.848 103.094 44.848 103.092C44.848 103.089 44.848 103.087 44.848 103.084C44.848 103.082 44.848 103.08 44.848 103.077C44.848 103.075 44.848 103.072 44.848 103.07C44.848 103.067 44.848 103.065 44.848 103.062C44.848 103.06 44.848 103.057 44.848 103.055C44.848 103.053 44.848 103.05 44.848 103.048C44.848 103.045 44.848 103.043 44.848 103.04C44.848 103.038 44.848 103.035 44.848 103.033C44.848 103.031 44.848 103.028 44.848 103.026C44.848 103.023 44.848 103.021 44.848 103.018C44.848 103.016 44.848 103.013 44.848 103.011C44.848 103.009 44.848 103.006 44.848 103.004C44.848 103.001 44.848 102.999 44.848 102.996C44.848 102.994 44.848 102.992 44.848 102.989C44.848 102.987 44.848 102.984 44.848 102.982C44.848 102.979 44.848 102.977 44.848 102.975C44.848 102.972 44.848 102.97 44.848 102.967C44.848 102.965 44.848 102.963 44.848 102.96C44.848 102.958 44.848 102.955 44.848 102.953C44.848 102.951 44.848 102.948 44.848 102.946C44.848 102.943 44.848 102.941 44.848 102.939C44.848 102.936 44.848 102.934 44.848 102.931C44.848 102.929 44.848 102.927 44.848 102.924C44.848 102.922 44.848 102.919 44.848 102.917C44.848 102.915 44.848 102.912 44.848 102.91C44.848 102.907 44.848 102.905 44.848 102.903C44.848 102.9 44.848 102.898 44.848 102.896C44.848 102.893 44.848 102.891 44.848 102.888C44.848 102.886 44.848 102.884 44.848 102.881C44.848 102.879 44.848 102.877 44.848 102.874C44.848 102.872 44.848 102.869 44.848 102.867C44.848 102.865 44.848 102.862 44.848 102.86C44.848 102.858 44.848 102.855 44.848 102.853C44.848 102.851 44.848 102.848 44.848 102.846C44.848 102.843 44.848 102.841 44.848 102.839C44.848 102.836 44.848 102.834 44.848 102.832C44.848 102.829 44.848 102.827 44.848 102.825C44.848 102.822 44.848 102.82 44.848 102.818C44.848 102.815 44.848 102.813 44.848 102.811C44.848 102.808 44.848 102.806 44.848 102.804C44.848 102.801 44.848 102.799 44.848 102.797C44.848 102.794 44.848 102.792 44.848 102.79C44.848 102.787 44.848 102.785 44.848 102.783C44.848 102.78 44.848 102.778 44.848 102.776C44.848 102.773 44.848 102.771 44.848 102.769C44.848 102.766 44.848 102.764 44.848 102.762C44.848 102.759 44.848 102.757 44.848 102.755C44.848 102.752 44.848 102.75 44.848 102.748C44.848 102.746 44.848 102.743 44.848 102.741C44.848 102.739 44.848 102.736 44.848 102.734C44.848 102.732 44.848 102.729 44.848 102.727C44.848 102.725 44.848 102.723 44.848 102.72C44.848 102.718 44.848 102.716 44.848 102.713C44.848 102.711 44.848 102.709 44.848 102.706C44.848 102.704 44.848 102.702 44.848 102.7C44.848 102.697 44.848 102.695 44.848 102.693C44.848 102.69 44.848 102.688 44.848 102.686C44.848 102.684 44.848 102.681 44.848 102.679C44.848 102.677 44.848 102.675 44.848 102.672C44.848 102.67 44.848 102.668 44.848 102.665C44.848 102.663 44.848 102.661 44.848 102.659C44.848 102.656 44.848 102.654 44.848 102.652C44.848 102.65 44.848 102.647 44.848 102.645C44.848 102.643 44.848 102.641 44.848 102.638C44.848 102.636 44.848 102.634 44.848 102.632C44.848 102.629 44.848 102.627 44.848 102.625C44.848 102.622 44.848 102.62 44.848 102.618C44.848 102.616 44.848 102.614 44.848 102.611C44.848 102.609 44.848 102.607 44.848 102.605C44.848 102.602 44.848 102.6 44.848 102.598C44.848 102.596 44.848 102.593 44.848 102.591C44.848 102.589 44.848 102.587 44.848 102.584C44.848 102.582 44.848 102.58 44.848 102.578C44.848 102.576 44.848 102.573 44.848 102.571C44.848 102.569 44.848 102.567 44.848 102.564C44.848 102.562 44.848 102.56 44.848 102.558C44.848 102.556 44.848 102.553 44.848 102.551C44.848 102.549 44.848 102.547 44.848 102.544C44.848 102.542 44.848 102.54 44.848 102.538C44.848 102.536 44.848 102.533 44.848 102.531C44.848 102.529 44.848 102.527 44.848 102.525C44.848 102.522 44.848 102.52 44.848 102.518C44.848 102.516 44.848 102.514 44.848 102.511C44.848 102.509 44.848 102.507 44.848 102.505C44.848 102.503 44.848 102.5 44.848 102.498C44.848 102.496 44.848 102.494 44.848 102.492C44.848 102.49 44.848 102.487 44.848 102.485C44.848 102.483 44.848 102.481 44.848 102.479C44.848 102.476 44.848 102.474 44.848 102.472C44.848 102.47 44.848 102.468 44.848 102.466C44.848 102.463 44.848 102.461 44.848 102.459C44.848 102.457 44.848 102.455 44.848 102.453C44.848 102.45 44.848 102.448 44.848 102.446C44.848 102.444 44.848 102.442 44.848 102.44C44.848 102.437 44.848 102.435 44.848 102.433C44.848 102.431 44.848 102.429 44.848 102.427C44.848 102.425 44.848 102.422 44.848 102.42C44.848 102.418 44.848 102.416 44.848 102.414C44.848 102.412 44.848 102.409 44.848 102.407C44.848 102.405 44.848 102.403 44.848 102.401C44.848 102.399 44.848 102.397 44.848 102.395C44.848 102.392 44.848 102.39 44.848 102.388C44.848 102.386 44.848 102.384 44.848 102.382C44.848 102.38 44.848 102.377 44.848 102.375C44.848 102.373 44.848 102.371 44.848 102.369C44.848 102.367 44.848 102.365 44.848 102.363C44.848 102.36 44.848 102.358 44.848 102.356C44.848 102.354 44.848 102.352 44.848 102.35C44.848 102.348 44.848 102.346 44.848 102.344C44.848 102.341 44.848 102.339 44.848 102.337C44.848 102.335 44.848 102.333 44.848 102.331C44.848 102.329 44.848 102.327 44.848 102.325C44.848 102.323 44.848 102.32 44.848 102.318C44.848 102.316 44.848 102.314 44.848 102.312C44.848 102.31 44.848 102.308 44.848 102.306C44.848 102.304 44.848 102.302 44.848 102.3C44.848 102.297 44.848 102.295 44.848 102.293C44.848 102.291 44.848 102.289 44.848 102.287C44.848 102.285 44.848 102.283 44.848 102.281C44.848 102.279 44.848 102.277 44.848 102.275C44.848 102.273 44.848 102.27 44.848 102.268C44.848 102.266 44.848 102.264 44.848 102.262C44.848 102.26 44.848 102.258 44.848 102.256H40.848ZM40.848 106.72V142H44.848V106.72H40.848ZM42.848 140H16.64V144H42.848V140ZM18.64 142V68.128H14.64V142H18.64ZM16.64 70.128H42.848V66.128H16.64V70.128Z" fill="black"/>
</g>
<defs>
<clipPath id="clip0">
<rect width="150" height="150" rx="16" fill="white"/>
</clipPath>
</defs>
</svg>
